HIERARCHY
ROOT Hips
{
    OFFSET 0.000000 0.000000 0.000000
    CHANNELS 6 Xposition Yposition Zposition Zrotation Xrotation Yrotation
    JOINT Spine
    {
        OFFSET -0.000000 8.167557 -0.000000
        CHANNELS 3 Zrotation Xrotation Yrotation
        JOINT Spine1
        {
            OFFSET 0.000002 23.859484 0.000002
            CHANNELS 3 Zrotation Xrotation Yrotation
            JOINT Neck
            {
                OFFSET -0.000002 27.221680 -0.000002
                CHANNELS 3 Zrotation Xrotation Yrotation
                JOINT Head
                {
                    OFFSET -0.000003 16.922937 2.035163
                    CHANNELS 3 Zrotation Xrotation Yrotation
                    End Site
                    {
                        OFFSET 0.000000 20.351660 0.000000
                    }
                }
            }
            JOINT LeftShoulder
            {
                OFFSET 4.036565 20.304848 -0.371913
                CHANNELS 3 Zrotation Xrotation Yrotation
                JOINT LeftArm
                {
                    OFFSET 12.502549 -0.000003 -0.000003
                    CHANNELS 3 Zrotation Xrotation Yrotation
                    JOINT LeftForeArm
                    {
                        OFFSET 31.806915 0.000006 -0.000012
                        CHANNELS 3 Zrotation Xrotation Yrotation
                        JOINT LeftHand
                        {
                            OFFSET 24.843237 0.000002 -0.000007
                            CHANNELS 3 Zrotation Xrotation Yrotation
                            JOINT LeftHandThumb1
                            {
                                OFFSET 2.126757 -2.416760 3.383455
                                CHANNELS 3 Zrotation Xrotation Yrotation
                                JOINT LeftHandThumb2
                                {
                                    OFFSET 3.212136 -0.000009 -0.000006
                                    CHANNELS 3 Zrotation Xrotation Yrotation
                                    JOINT LeftHandThumb3
                                    {
                                        OFFSET 2.745440 -0.000006 -0.000002
                                        CHANNELS 3 Zrotation Xrotation Yrotation
                                        End Site
                                        {
                                            OFFSET 2.793713 0.000000 0.000000
                                        }
                                    }
                                }
                            }
                            JOINT LeftHandIndex1
                            {
                                OFFSET 8.700332 -0.000004 3.383463
                                CHANNELS 3 Zrotation Xrotation Yrotation
                                JOINT LeftHandIndex2
                                {
                                    OFFSET 4.833524 0.000001 -0.000002
                                    CHANNELS 3 Zrotation Xrotation Yrotation
                                    JOINT LeftHandIndex3
                                    {
                                        OFFSET 2.416761 0.000001 -0.000002
                                        CHANNELS 3 Zrotation Xrotation Yrotation
                                        End Site
                                        {
                                            OFFSET 2.459254 0.000000 0.000000
                                        }
                                    }
                                }
                            }
                            JOINT LeftHandMiddle1
                            {
                                OFFSET 8.700328 -0.000007 1.121376
                                CHANNELS 3 Zrotation Xrotation Yrotation
                                JOINT LeftHandMiddle2
                                {
                                    OFFSET 5.316872 -0.000003 -0.000004
                                    CHANNELS 3 Zrotation Xrotation Yrotation
                                    JOINT LeftHandMiddle3
                                    {
                                        OFFSET 2.900109 -0.000003 -0.000003
                                        CHANNELS 3 Zrotation Xrotation Yrotation
                                        End Site
                                        {
                                            OFFSET 2.951103 0.000000 0.000000
                                        }
                                    }
                                }
                            }
                            JOINT LeftHandRing1
                            {
                                OFFSET 8.216985 -0.000001 -1.121383
                                CHANNELS 3 Zrotation Xrotation Yrotation
                                JOINT LeftHandRing2
                                {
                                    OFFSET 4.833525 0.000001 -0.000003
                                    CHANNELS 3 Zrotation Xrotation Yrotation
                                    JOINT LeftHandRing3
                                    {
                                        OFFSET 2.416762 0.000002 -0.000002
                                        CHANNELS 3 Zrotation Xrotation Yrotation
                                        End Site
                                        {
                                            OFFSET 2.459254 0.000000 0.000000
                                        }
                                    }
                                }
                            }
                            JOINT LeftHandPinky1
                            {
                                OFFSET 7.733633 0.000000 -3.383469
                                CHANNELS 3 Zrotation Xrotation Yrotation
                                JOINT LeftHandPinky2
                                {
                                    OFFSET 3.866806 -0.000004 0.000003
                                    CHANNELS 3 Zrotation Xrotation Yrotation
                                    JOINT LeftHandPinky3
                                    {
                                        OFFSET 1.933414 0.000006 0.000000
                                        CHANNELS 3 Zrotation Xrotation Yrotation
                                        End Site
                                        {
                                            OFFSET 1.967405 0.000000 0.000000
                                        }
                                    }
                                }
                            }
                        }
                    }
                }
            }
            JOINT RightShoulder
            {
                OFFSET -4.036565 20.304853 -0.371906
                CHANNELS 3 Zrotation Xrotation Yrotation
                JOINT RightArm
                {
                    OFFSET -12.502551 -0.000001 0.000004
                    CHANNELS 3 Zrotation Xrotation Yrotation
                    JOINT RightForeArm
                    {
                        OFFSET -31.806915 0.000000 0.000012
                        CHANNELS 3 Zrotation Xrotation Yrotation
                        JOINT RightHand
                        {
                            OFFSET -24.843229 0.000004 0.000006
                            CHANNELS 3 Zrotation Xrotation Yrotation
                            JOINT RightHandThumb1
                            {
                                OFFSET -2.126750 -2.416763 3.383456
                                CHANNELS 3 Zrotation Xrotation Yrotation
                                JOINT RightHandThumb2
                                {
                                    OFFSET -3.212134 0.000001 -0.000003
                                    CHANNELS 3 Zrotation Xrotation Yrotation
                                    JOINT RightHandThumb3
                                    {
                                        OFFSET -2.745439 0.000001 0.000004
                                        CHANNELS 3 Zrotation Xrotation Yrotation
                                        End Site
                                        {
                                            OFFSET -2.793713 0.000000 0.000000
                                        }
                                    }
                                }
                            }
                            JOINT RightHandIndex1
                            {
                                OFFSET -8.700332 -0.000004 3.383471
                                CHANNELS 3 Zrotation Xrotation Yrotation
                                JOINT RightHandIndex2
                                {
                                    OFFSET -4.833519 -0.000003 0.000009
                                    CHANNELS 3 Zrotation Xrotation Yrotation
                                    JOINT RightHandIndex3
                                    {
                                        OFFSET -2.416762 0.000000 -0.000007
                                        CHANNELS 3 Zrotation Xrotation Yrotation
                                        End Site
                                        {
                                            OFFSET -2.459254 0.000000 0.000000
                                        }
                                    }
                                }
                            }
                            JOINT RightHandMiddle1
                            {
                                OFFSET -8.700335 -0.000001 1.121369
                                CHANNELS 3 Zrotation Xrotation Yrotation
                                JOINT RightHandMiddle2
                                {
                                    OFFSET -5.316872 0.000003 -0.000011
                                    CHANNELS 3 Zrotation Xrotation Yrotation
                                    JOINT RightHandMiddle3
                                    {
                                        OFFSET -2.900113 0.000002 -0.000003
                                        CHANNELS 3 Zrotation Xrotation Yrotation
                                        End Site
                                        {
                                            OFFSET -2.951103 0.000000 0.000000
                                        }
                                    }
                                }
                            }
                            JOINT RightHandRing1
                            {
                                OFFSET -8.216978 0.000003 -1.121373
                                CHANNELS 3 Zrotation Xrotation Yrotation
                                JOINT RightHandRing2
                                {
                                    OFFSET -4.833519 -0.000005 0.000008
                                    CHANNELS 3 Zrotation Xrotation Yrotation
                                    JOINT RightHandRing3
                                    {
                                        OFFSET -2.416759 0.000000 -0.000008
                                        CHANNELS 3 Zrotation Xrotation Yrotation
                                        End Site
                                        {
                                            OFFSET -2.459254 0.000000 0.000000
                                        }
                                    }
                                }
                            }
                            JOINT RightHandPinky1
                            {
                                OFFSET -7.733627 -0.000002 -3.383456
                                CHANNELS 3 Zrotation Xrotation Yrotation
                                JOINT RightHandPinky2
                                {
                                    OFFSET -3.866812 0.000002 0.000004
                                    CHANNELS 3 Zrotation Xrotation Yrotation
                                    JOINT RightHandPinky3
                                    {
                                        OFFSET -1.933411 0.000002 -0.000010
                                        CHANNELS 3 Zrotation Xrotation Yrotation
                                        End Site
                                        {
                                            OFFSET -1.967405 0.000000 0.000000
                                        }
                                    }
                                }
                            }
                        }
                    }
                }
            }
        }
    }
    JOINT LeftUpLeg
    {
        OFFSET 10.175833 -0.000000 0.000007
        CHANNELS 3 Zrotation Xrotation Yrotation
        JOINT LeftLeg
        {
            OFFSET 0.000006 -42.882954 0.000007
            CHANNELS 3 Zrotation Xrotation Yrotation
            JOINT LeftFoot
            {
                OFFSET 0.000004 -39.006771 0.000007
                CHANNELS 3 Zrotation Xrotation Yrotation
                JOINT LeftToeBase
                {
                    OFFSET -0.000001 -6.614287 15.263733
                    CHANNELS 3 Zrotation Xrotation Yrotation
                    End Site
                    {
                        OFFSET 0.000000 0.000000 4.070332
                    }
                }
            }
        }
    }
    JOINT RightUpLeg
    {
        OFFSET -10.175833 0.000000 -0.000007
        CHANNELS 3 Zrotation Xrotation Yrotation
        JOINT RightLeg
        {
            OFFSET 0.000001 -42.882950 0.000001
            CHANNELS 3 Zrotation Xrotation Yrotation
            JOINT RightFoot
            {
                OFFSET -0.000005 -39.006771 -0.000006
                CHANNELS 3 Zrotation Xrotation Yrotation
                JOINT RightToeBase
                {
                    OFFSET -0.000005 -6.614288 15.263737
                    CHANNELS 3 Zrotation Xrotation Yrotation
                    End Site
                    {
                        OFFSET 0.000000 0.000000 4.070332
                    }
                }
            }
        }
    }
}
MOTION
Frames:    4
Frame Time:    0.002778
-6.655117    94.710228    227.298065    1.512975    4.945271    -12.223105    0.133570    4.680942    -0.556793    0.667853    4.680642    -0.600396    7.580945    -0.178794    6.587350    7.580945    -0.178792    6.587352    -5.090786    2.054608    2.280644    -63.210587    21.201694    -3.422693    -20.126978    2.544199    -94.639008    27.283787    9.632647    18.394749    47.448212    38.866428    -34.355038    -35.000008    0.000001    -0.000004    -0.000000    0.000000    -0.000000    0.000000    10.000003    -0.000005    -0.000000    0.000000    -0.000000    -0.000000    0.000000    -0.000000    -0.000000    0.000000    -0.000000    -0.000000    0.000000    -0.000000    -0.000000    0.000000    -0.000000    -0.000000    0.000000    -0.000000    -0.000000    0.000000    -0.000000    -0.000000    0.000000    -0.000000    -0.000001    -10.000000    0.000003    -0.000000    0.000000    -0.000000    -0.000000    0.000000    -0.000000    -6.183557    4.300984    1.646110    65.532303    49.947868    15.557522    -8.528323    -14.022807    62.941456    -15.631927    5.819343    -19.870790    -47.448219    38.866432    34.355045    34.999996    -0.000008    -0.000003    -0.000000    0.000000    -0.000000    0.000000    10.000002    0.000007    -0.000000    0.000000    -0.000000    -0.000000    0.000000    -0.000000    -0.000000    0.000000    -0.000000    -0.000000    0.000000    -0.000000    -0.000000    0.000000    -0.000000    -0.000000    0.000000    -0.000000    -0.000000    0.000000    -0.000000    -0.000000    0.000000    -0.000000    0.000000    -9.999997    0.000006    -0.000000    0.000000    -0.000000    -0.000000    0.000000    -0.000000    6.673440    -9.242478    -1.007850    -0.000001    17.291115    0.000001    -15.472311    -20.418247    5.483819    -0.000001    1.608615    -0.000000    -8.456466    -11.613078    -1.402259    -0.000000    14.434346    -0.000001    11.703554    -11.897161    -17.223602    0.000000    -0.763335    0.000007    
-6.772407    94.709709    227.252823    1.544662    4.988777    -12.048910    0.138993    4.696498    -0.557113    0.694966    4.696165    -0.602631    7.603066    -0.267617    6.559624    7.603065    -0.267613    6.559622    -5.065645    2.053955    2.259268    -63.245392    21.220125    -3.437229    -20.147051    2.554979    -94.668884    27.286800    9.643086    18.410995    47.448231    38.866440    -34.355034    -35.000000    0.000001    -0.000016    -0.000000    0.000000    -0.000000    0.000004    9.999997    -0.000004    -0.000000    0.000000    -0.000000    -0.000000    0.000000    -0.000000    -0.000000    0.000000    -0.000000    -0.000000    0.000000    -0.000000    -0.000000    0.000000    -0.000000    -0.000000    0.000000    -0.000000    -0.000000    0.000000    -0.000000    -0.000000    0.000000    -0.000000    -0.000005    -10.000005    -0.000002    -0.000000    0.000000    -0.000000    -0.000000    0.000000    -0.000000    -6.175381    4.326846    1.681683    65.514290    49.922401    15.541918    -8.501998    -14.046183    62.951004    -15.586215    5.806738    -19.888603    -47.448208    38.866432    34.355038    34.999996    -0.000009    -0.000007    -0.000000    0.000000    -0.000000    0.000003    9.999997    0.000001    -0.000000    0.000000    -0.000000    -0.000000    0.000000    -0.000000    -0.000000    0.000000    -0.000000    -0.000000    0.000000    -0.000000    -0.000000    0.000000    -0.000000    -0.000000    0.000000    -0.000000    -0.000000    0.000000    -0.000000    -0.000000    0.000000    -0.000000    0.000003    -10.000001    -0.000001    -0.000000    0.000000    -0.000000    -0.000000    0.000000    -0.000000    6.721727    -9.441104    -1.028166    -0.000001    17.457592    0.000003    -15.474114    -20.316534    5.359874    -0.000001    1.571290    -0.000000    -8.424953    -11.614101    -1.459448    0.000001    14.419169    0.000003    11.703859    -11.999680    -17.315781    0.000001    -0.733078    -0.000002    
-6.884060    94.709328    227.210541    1.574288    5.032516    -11.880395    0.145113    4.710442    -0.556446    0.725565    4.710083    -0.604112    7.625857    -0.352270    6.531760    7.625855    -0.352273    6.531763    -5.037121    2.067666    2.231817    -63.278675    21.241806    -3.450451    -20.183287    2.588951    -94.709335    27.270929    9.644288    18.425558    47.448196    38.866428    -34.355030    -35.000000    -0.000006    0.000004    -0.000000    0.000000    -0.000000    0.000002    9.999999    -0.000003    -0.000000    0.000000    -0.000000    -0.000000    0.000000    -0.000000    -0.000000    0.000000    -0.000000    -0.000000    0.000000    -0.000000    -0.000000    0.000000    -0.000000    -0.000000    0.000000    -0.000000    -0.000000    0.000000    -0.000000    -0.000000    0.000000    -0.000000    -0.000001    -10.000003    -0.000000    -0.000000    0.000000    -0.000000    -0.000000    0.000000    -0.000000    -6.166874    4.352437    1.724676    65.500221    49.889549    15.522101    -8.473113    -14.075874    62.951096    -15.539442    5.791062    -19.898428    -47.448215    38.866421    34.355030    34.999996    -0.000001    0.000007    -0.000000    0.000000    -0.000000    0.000002    10.000001    0.000000    -0.000000    0.000000    -0.000000    -0.000000    0.000000    -0.000000    -0.000000    0.000000    -0.000000    -0.000000    0.000000    -0.000000    -0.000000    0.000000    -0.000000    -0.000000    0.000000    -0.000000    -0.000000    0.000000    -0.000000    -0.000000    0.000000    -0.000000    0.000002    -9.999997    -0.000001    -0.000000    0.000000    -0.000000    -0.000000    0.000000    -0.000000    6.766659    -9.641897    -1.047035    -0.000001    17.633413    -0.000000    -15.468234    -20.223373    5.238933    0.000001    1.531320    0.000001    -8.395650    -11.617622    -1.514205    -0.000000    14.404299    -0.000001    11.709580    -12.093425    -17.406490    -0.000001    -0.701387    0.000003    
-6.999812    94.706139    227.164871    1.605624    5.074437    -11.710943    0.150734    4.725642    -0.553055    0.753670    4.725253    -0.602729    7.640479    -0.432251    6.502775    7.640476    -0.432249    6.502772    -5.016183    2.064226    2.210257    -63.316235    21.236172    -3.459456    -20.217773    2.601404    -94.738380    27.253033    9.644915    18.440510    47.448215    38.866432    -34.355042    -35.000000    -0.000003    -0.000002    -0.000000    0.000000    -0.000000    0.000013    10.000010    0.000002    -0.000000    0.000000    -0.000000    -0.000000    0.000000    -0.000000    -0.000000    0.000000    -0.000000    -0.000000    0.000000    -0.000000    -0.000000    0.000000    -0.000000    -0.000000    0.000000    -0.000000    -0.000000    0.000000    -0.000000    -0.000000    0.000000    -0.000000    0.000008    -9.999997    0.000001    -0.000000    0.000000    -0.000000    -0.000000    0.000000    -0.000000    -6.163143    4.374938    1.764446    65.493179    49.846577    15.495938    -8.397447    -14.126347    62.983776    -15.485726    5.758930    -19.866241    -47.448231    38.866440    34.355045    34.999996    0.000006    0.000013    -0.000000    0.000000    -0.000000    0.000008    9.999998    0.000004    -0.000000    0.000000    -0.000000    -0.000000    0.000000    -0.000000    -0.000000    0.000000    -0.000000    -0.000000    0.000000    -0.000000    -0.000000    0.000000    -0.000000    -0.000000    0.000000    -0.000000    -0.000000    0.000000    -0.000000    -0.000000    0.000000    -0.000000    0.000002    -10.000000    -0.000002    -0.000000    0.000000    -0.000000    -0.000000    0.000000    -0.000000    6.811744    -9.845618    -1.066523    -0.000001    17.813635    0.000001    -15.464649    -20.129379    5.116825    -0.000002    1.491901    -0.000001    -8.365494    -11.624454    -1.565027    0.000001    14.397691    0.000000    11.713889    -12.197433    -17.498104    -0.000001    -0.672983    0.000007    
